<mxfile host="Electron" modified="2024-03-23T03:19:22.086Z" agent="Mozilla/5.0 (Windows NT 10.0; Win64; x64) AppleWebKit/537.36 (KHTML, like Gecko) draw.io/24.0.4 Chrome/120.0.6099.109 Electron/28.1.0 Safari/537.36" etag="cVpMroEt0RBmYSB1iRzc" version="24.0.4" type="device">
  <diagram name="Page-1" id="2BOk3XzFBwLmkPGE1wBV">
    <mxGraphModel dx="2395" dy="2632" grid="1" gridSize="10" guides="1" tooltips="1" connect="1" arrows="1" fold="1" page="1" pageScale="1" pageWidth="1200" pageHeight="1920" math="0" shadow="0">
      <root>
        <mxCell id="0" />
        <mxCell id="1" parent="0" />
        <mxCell id="pDDlIcloU2Q2R1JEvlbL-1" value=":GUI" style="shape=umlLifeline;perimeter=lifelinePerimeter;whiteSpace=wrap;html=1;container=0;dropTarget=0;collapsible=0;recursiveResize=0;outlineConnect=0;portConstraint=eastwest;newEdgeStyle={&quot;edgeStyle&quot;:&quot;elbowEdgeStyle&quot;,&quot;elbow&quot;:&quot;vertical&quot;,&quot;curved&quot;:0,&quot;rounded&quot;:0};" vertex="1" parent="1">
          <mxGeometry x="40" y="30" width="100" height="380" as="geometry" />
        </mxCell>
        <mxCell id="pDDlIcloU2Q2R1JEvlbL-2" value="" style="html=1;points=[];perimeter=orthogonalPerimeter;outlineConnect=0;targetShapes=umlLifeline;portConstraint=eastwest;newEdgeStyle={&quot;edgeStyle&quot;:&quot;elbowEdgeStyle&quot;,&quot;elbow&quot;:&quot;vertical&quot;,&quot;curved&quot;:0,&quot;rounded&quot;:0};" vertex="1" parent="pDDlIcloU2Q2R1JEvlbL-1">
          <mxGeometry x="45" y="70" width="10" height="270" as="geometry" />
        </mxCell>
        <mxCell id="pDDlIcloU2Q2R1JEvlbL-5" value=":Command handler" style="shape=umlLifeline;perimeter=lifelinePerimeter;whiteSpace=wrap;html=1;container=0;dropTarget=0;collapsible=0;recursiveResize=0;outlineConnect=0;portConstraint=eastwest;newEdgeStyle={&quot;edgeStyle&quot;:&quot;elbowEdgeStyle&quot;,&quot;elbow&quot;:&quot;vertical&quot;,&quot;curved&quot;:0,&quot;rounded&quot;:0};" vertex="1" parent="1">
          <mxGeometry x="220" y="30" width="100" height="380" as="geometry" />
        </mxCell>
        <mxCell id="pDDlIcloU2Q2R1JEvlbL-64" value="" style="html=1;points=[];perimeter=orthogonalPerimeter;outlineConnect=0;targetShapes=umlLifeline;portConstraint=eastwest;newEdgeStyle={&quot;edgeStyle&quot;:&quot;elbowEdgeStyle&quot;,&quot;elbow&quot;:&quot;vertical&quot;,&quot;curved&quot;:0,&quot;rounded&quot;:0};" vertex="1" parent="pDDlIcloU2Q2R1JEvlbL-5">
          <mxGeometry x="45" y="90" width="10" height="80" as="geometry" />
        </mxCell>
        <mxCell id="pDDlIcloU2Q2R1JEvlbL-7" value="Actor" style="shape=umlActor;verticalLabelPosition=bottom;verticalAlign=top;html=1;outlineConnect=0;" vertex="1" parent="1">
          <mxGeometry x="-60" y="-10" width="30" height="60" as="geometry" />
        </mxCell>
        <mxCell id="pDDlIcloU2Q2R1JEvlbL-8" value="" style="endArrow=none;dashed=1;html=1;rounded=0;" edge="1" parent="1" source="pDDlIcloU2Q2R1JEvlbL-18">
          <mxGeometry width="50" height="50" relative="1" as="geometry">
            <mxPoint x="-45" y="620" as="sourcePoint" />
            <mxPoint x="-45" y="70" as="targetPoint" />
          </mxGeometry>
        </mxCell>
        <mxCell id="pDDlIcloU2Q2R1JEvlbL-9" value=":JWT" style="shape=umlLifeline;perimeter=lifelinePerimeter;whiteSpace=wrap;html=1;container=0;dropTarget=0;collapsible=0;recursiveResize=0;outlineConnect=0;portConstraint=eastwest;newEdgeStyle={&quot;edgeStyle&quot;:&quot;elbowEdgeStyle&quot;,&quot;elbow&quot;:&quot;vertical&quot;,&quot;curved&quot;:0,&quot;rounded&quot;:0};" vertex="1" parent="1">
          <mxGeometry x="380" y="30" width="100" height="380" as="geometry" />
        </mxCell>
        <mxCell id="pDDlIcloU2Q2R1JEvlbL-66" value="" style="html=1;points=[];perimeter=orthogonalPerimeter;outlineConnect=0;targetShapes=umlLifeline;portConstraint=eastwest;newEdgeStyle={&quot;edgeStyle&quot;:&quot;elbowEdgeStyle&quot;,&quot;elbow&quot;:&quot;vertical&quot;,&quot;curved&quot;:0,&quot;rounded&quot;:0};" vertex="1" parent="pDDlIcloU2Q2R1JEvlbL-9">
          <mxGeometry x="45" y="110" width="10" height="50" as="geometry" />
        </mxCell>
        <mxCell id="pDDlIcloU2Q2R1JEvlbL-17" value="" style="endArrow=none;dashed=1;html=1;rounded=0;" edge="1" parent="1">
          <mxGeometry width="50" height="50" relative="1" as="geometry">
            <mxPoint x="-45.14" y="407" as="sourcePoint" />
            <mxPoint x="-45.14" y="380" as="targetPoint" />
          </mxGeometry>
        </mxCell>
        <mxCell id="pDDlIcloU2Q2R1JEvlbL-18" value="" style="html=1;points=[];perimeter=orthogonalPerimeter;outlineConnect=0;targetShapes=umlLifeline;portConstraint=eastwest;newEdgeStyle={&quot;edgeStyle&quot;:&quot;elbowEdgeStyle&quot;,&quot;elbow&quot;:&quot;vertical&quot;,&quot;curved&quot;:0,&quot;rounded&quot;:0};" vertex="1" parent="1">
          <mxGeometry x="-50" y="100" width="10" height="280" as="geometry" />
        </mxCell>
        <mxCell id="pDDlIcloU2Q2R1JEvlbL-19" value="click on sign out" style="html=1;verticalAlign=bottom;endArrow=block;edgeStyle=elbowEdgeStyle;elbow=horizontal;curved=0;rounded=0;" edge="1" parent="1">
          <mxGeometry relative="1" as="geometry">
            <mxPoint x="-40" y="110" as="sourcePoint" />
            <Array as="points">
              <mxPoint x="20" y="110" />
            </Array>
            <mxPoint x="85" y="110" as="targetPoint" />
          </mxGeometry>
        </mxCell>
        <mxCell id="pDDlIcloU2Q2R1JEvlbL-38" value="get user by email" style="html=1;verticalAlign=bottom;endArrow=block;elbow=horizontal;rounded=0;" edge="1" parent="1" target="pDDlIcloU2Q2R1JEvlbL-14">
          <mxGeometry relative="1" as="geometry">
            <mxPoint x="595" y="500" as="sourcePoint" />
            <Array as="points">
              <mxPoint x="670" y="500" />
            </Array>
            <mxPoint x="595" y="490" as="targetPoint" />
          </mxGeometry>
        </mxCell>
        <mxCell id="pDDlIcloU2Q2R1JEvlbL-40" value="result" style="html=1;verticalAlign=bottom;endArrow=open;dashed=1;endSize=8;edgeStyle=elbowEdgeStyle;elbow=vertical;curved=0;rounded=0;" edge="1" parent="1" source="pDDlIcloU2Q2R1JEvlbL-16">
          <mxGeometry relative="1" as="geometry">
            <mxPoint x="735" y="580" as="targetPoint" />
            <Array as="points">
              <mxPoint x="835" y="580" />
            </Array>
            <mxPoint x="900" y="580" as="sourcePoint" />
          </mxGeometry>
        </mxCell>
        <mxCell id="pDDlIcloU2Q2R1JEvlbL-47" value="result" style="html=1;verticalAlign=bottom;endArrow=open;dashed=1;endSize=8;edgeStyle=elbowEdgeStyle;elbow=vertical;curved=0;rounded=0;" edge="1" parent="1" source="pDDlIcloU2Q2R1JEvlbL-14">
          <mxGeometry relative="1" as="geometry">
            <mxPoint x="595" y="590" as="targetPoint" />
            <Array as="points">
              <mxPoint x="660" y="590" />
            </Array>
            <mxPoint x="885" y="590" as="sourcePoint" />
          </mxGeometry>
        </mxCell>
        <mxCell id="pDDlIcloU2Q2R1JEvlbL-50" value="alt" style="shape=umlFrame;whiteSpace=wrap;html=1;pointerEvents=0;recursiveResize=0;container=1;collapsible=0;width=55;height=15;" vertex="1" parent="1">
          <mxGeometry x="-140" y="210" width="330" height="180" as="geometry" />
        </mxCell>
        <mxCell id="pDDlIcloU2Q2R1JEvlbL-51" value="[success]" style="text;html=1;" vertex="1" parent="pDDlIcloU2Q2R1JEvlbL-50">
          <mxGeometry width="100" height="20" relative="1" as="geometry">
            <mxPoint x="20" y="40" as="offset" />
          </mxGeometry>
        </mxCell>
        <mxCell id="pDDlIcloU2Q2R1JEvlbL-52" value="[else]" style="line;strokeWidth=1;dashed=1;labelPosition=center;verticalLabelPosition=bottom;align=left;verticalAlign=top;spacingLeft=20;spacingTop=15;html=1;whiteSpace=wrap;" vertex="1" parent="pDDlIcloU2Q2R1JEvlbL-50">
          <mxGeometry y="125" width="330" height="10" as="geometry" />
        </mxCell>
        <mxCell id="pDDlIcloU2Q2R1JEvlbL-53" value="" style="html=1;points=[];perimeter=orthogonalPerimeter;outlineConnect=0;targetShapes=umlLifeline;portConstraint=eastwest;newEdgeStyle={&quot;edgeStyle&quot;:&quot;elbowEdgeStyle&quot;,&quot;elbow&quot;:&quot;vertical&quot;,&quot;curved&quot;:0,&quot;rounded&quot;:0};" vertex="1" parent="pDDlIcloU2Q2R1JEvlbL-50">
          <mxGeometry x="229.94" y="45" width="10" height="60" as="geometry" />
        </mxCell>
        <mxCell id="pDDlIcloU2Q2R1JEvlbL-54" value="redirect to&amp;nbsp;&lt;div&gt;&quot;home&quot; page&lt;/div&gt;" style="html=1;verticalAlign=bottom;endArrow=block;edgeStyle=orthogonalEdgeStyle;elbow=horizontal;rounded=0;" edge="1" parent="pDDlIcloU2Q2R1JEvlbL-50" target="pDDlIcloU2Q2R1JEvlbL-53">
          <mxGeometry x="0.1763" relative="1" as="geometry">
            <mxPoint x="234.94" y="40" as="sourcePoint" />
            <Array as="points">
              <mxPoint x="289.94" y="40" />
              <mxPoint x="289.94" y="85" />
            </Array>
            <mxPoint x="269.94" y="104.9985714285715" as="targetPoint" />
            <mxPoint as="offset" />
          </mxGeometry>
        </mxCell>
        <mxCell id="pDDlIcloU2Q2R1JEvlbL-55" value="error" style="html=1;verticalAlign=bottom;endArrow=open;dashed=1;endSize=8;edgeStyle=elbowEdgeStyle;elbow=vertical;curved=0;rounded=0;" edge="1" parent="pDDlIcloU2Q2R1JEvlbL-50">
          <mxGeometry relative="1" as="geometry">
            <mxPoint x="100" y="150" as="targetPoint" />
            <Array as="points">
              <mxPoint x="172.5" y="150" />
            </Array>
            <mxPoint x="225" y="150" as="sourcePoint" />
          </mxGeometry>
        </mxCell>
        <mxCell id="pDDlIcloU2Q2R1JEvlbL-56" value="&quot;home&quot; page" style="html=1;verticalAlign=bottom;endArrow=open;dashed=1;endSize=8;edgeStyle=elbowEdgeStyle;elbow=vertical;curved=0;rounded=0;" edge="1" parent="1">
          <mxGeometry relative="1" as="geometry">
            <mxPoint x="-40" y="320" as="targetPoint" />
            <Array as="points">
              <mxPoint x="20" y="320" />
            </Array>
            <mxPoint x="85" y="320" as="sourcePoint" />
          </mxGeometry>
        </mxCell>
        <mxCell id="pDDlIcloU2Q2R1JEvlbL-63" value="HTTP-request" style="html=1;verticalAlign=bottom;endArrow=block;edgeStyle=elbowEdgeStyle;elbow=vertical;curved=0;rounded=0;" edge="1" parent="1" target="pDDlIcloU2Q2R1JEvlbL-64">
          <mxGeometry relative="1" as="geometry">
            <mxPoint x="95" y="130" as="sourcePoint" />
            <Array as="points">
              <mxPoint x="180" y="130" />
            </Array>
            <mxPoint x="269.5" y="130" as="targetPoint" />
          </mxGeometry>
        </mxCell>
        <mxCell id="pDDlIcloU2Q2R1JEvlbL-65" value="remove token" style="html=1;verticalAlign=bottom;endArrow=block;edgeStyle=elbowEdgeStyle;elbow=vertical;curved=0;rounded=0;" edge="1" parent="1" source="pDDlIcloU2Q2R1JEvlbL-64" target="pDDlIcloU2Q2R1JEvlbL-66">
          <mxGeometry relative="1" as="geometry">
            <mxPoint x="220" y="150" as="sourcePoint" />
            <Array as="points">
              <mxPoint x="305" y="150" />
            </Array>
            <mxPoint x="390" y="150" as="targetPoint" />
          </mxGeometry>
        </mxCell>
        <mxCell id="pDDlIcloU2Q2R1JEvlbL-67" value="result" style="html=1;verticalAlign=bottom;endArrow=open;dashed=1;endSize=8;edgeStyle=elbowEdgeStyle;elbow=vertical;curved=0;rounded=0;" edge="1" parent="1">
          <mxGeometry relative="1" as="geometry">
            <mxPoint x="275" y="180" as="targetPoint" />
            <Array as="points">
              <mxPoint x="340" y="180" />
            </Array>
            <mxPoint x="425" y="180" as="sourcePoint" />
          </mxGeometry>
        </mxCell>
        <mxCell id="pDDlIcloU2Q2R1JEvlbL-68" value="result" style="html=1;verticalAlign=bottom;endArrow=open;dashed=1;endSize=8;edgeStyle=elbowEdgeStyle;elbow=vertical;curved=0;rounded=0;" edge="1" parent="1" source="pDDlIcloU2Q2R1JEvlbL-64" target="pDDlIcloU2Q2R1JEvlbL-2">
          <mxGeometry relative="1" as="geometry">
            <mxPoint x="285" y="190" as="targetPoint" />
            <Array as="points">
              <mxPoint x="190" y="190" />
            </Array>
            <mxPoint x="435" y="190" as="sourcePoint" />
          </mxGeometry>
        </mxCell>
      </root>
    </mxGraphModel>
  </diagram>
</mxfile>
